{
  "source": "C:\\Users\\Peter\\Desktop\\stuff\\MIUN\\quantitative_research\\video_compression\\videos\\BVI-HD\\BVI-HD_CDVL_videos\\ORIG\\CloudsZoom_1920x1080_60fps.mp4",
  "output": "C:\\Users\\Peter\\Desktop\\stuff\\MIUN\\quantitative_research\\video_compression\\compressed_videos\\BVI-HD\\h264\\3\\CloudsZoom_1920x1080_60fps_h264.mp4",
  "codec": "h264",
  "ok": "Input #0, mov,mp4,m4a,3gp,3g2,mj2, from 'C:\\Users\\Peter\\Desktop\\stuff\\MIUN\\quantitative_research\\video_compression\\videos\\BVI-HD\\BVI-HD_CDVL_videos\\ORIG\\CloudsZoom_1920x1080_60fps.mp4':\n  Metadata:\n    major_brand     : isom\n    minor_version   : 512\n    compatible_brands: isomiso2avc1mp41\n    encoder         : Lavf54.28.101\n  Duration: 00:00:05.00, start: 0.000000, bitrate: 32589 kb/s\n  Stream #0:0[0x1](und): Video: h264 (High 4:4:4 Predictive) (avc1 / 0x31637661), yuv420p(progressive), 1920x1080, 32586 kb/s, 60 fps, 60 tbr, 60 tbn (default)\n    Metadata:\n      handler_name    : VideoHandler\n      vendor_id       : [0][0][0][0]\n[out#0/mp4 @ 000001e9429c9a80] Codec AVOption b:a (set bitrate (in bits/s)) has not been used for any stream. The most likely reason is either wrong type (e.g. a video option with no video streams) or that it is a private option of some decoder which was not actually used for any stream.\nStream mapping:\n  Stream #0:0 -> #0:0 (h264 (native) -> h264 (libx264))\nPress [q] to stop, [?] for help\n[libx264 @ 000001e9431a0b40] using cpu capabilities: MMX2 SSE2Fast SSSE3 SSE4.2 AVX FMA3 BMI2 AVX2\n[libx264 @ 000001e9431a0b40] profile High, level 5.0, 4:2:0, 8-bit\n[libx264 @ 000001e9431a0b40] 264 - core 165 r3222 b35605a - H.264/MPEG-4 AVC codec - Copyleft 2003-2025 - http://www.videolan.org/x264.html - options: cabac=1 ref=5 deblock=1:0:0 analyse=0x3:0x113 me=hex subme=8 psy=1 psy_rd=1.00:0.00 mixed_ref=1 me_range=16 chroma_me=1 trellis=2 8x8dct=1 cqm=0 deadzone=21,11 fast_pskip=1 chroma_qp_offset=-2 threads=18 lookahead_threads=3 sliced_threads=0 nr=0 decimate=1 interlaced=0 bluray_compat=0 constrained_intra=0 bframes=3 b_pyramid=2 b_adapt=1 b_bias=0 direct=3 weightb=1 open_gop=0 weightp=2 keyint=250 keyint_min=25 scenecut=40 intra_refresh=0 rc_lookahead=50 rc=cbr mbtree=1 bitrate=3000 ratetol=1.0 qcomp=0.60 qpmin=0 qpmax=69 qpstep=4 vbv_maxrate=3000 vbv_bufsize=3000 nal_hrd=none filler=0 ip_ratio=1.40 aq=1:1.00\nOutput #0, mp4, to 'C:\\Users\\Peter\\Desktop\\stuff\\MIUN\\quantitative_research\\video_compression\\compressed_videos\\BVI-HD\\h264\\3\\CloudsZoom_1920x1080_60fps_h264.mp4':\n  Metadata:\n    major_brand     : isom\n    minor_version   : 512\n    compatible_brands: isomiso2avc1mp41\n    encoder         : Lavf62.3.100\n  Stream #0:0(und): Video: h264 (avc1 / 0x31637661), yuv420p(tv, progressive), 1920x1080, q=2-31, 3000 kb/s, 60 fps, 15360 tbn (default)\n    Metadata:\n      encoder         : Lavc62.11.100 libx264\n      handler_name    : VideoHandler\n      vendor_id       : [0][0][0][0]\n    Side data:\n      cpb: bitrate max/min/avg: 3000000/0/3000000 buffer size: 3000000 vbv_delay: N/A\nframe=    4 fps=0.0 q=32.0 size=       0KiB time=00:00:00.03 bitrate=  11.5kbits/s speed=0.0633x elapsed=0:00:00.52    \nframe=   57 fps= 54 q=27.0 size=     256KiB time=00:00:00.86 bitrate=2420.2kbits/s speed=0.823x elapsed=0:00:01.05    \nframe=  109 fps= 68 q=27.0 size=     512KiB time=00:00:01.71 bitrate=2443.5kbits/s speed=1.08x elapsed=0:00:01.59    \nframe=  160 fps= 75 q=27.0 size=     768KiB time=00:00:02.63 bitrate=2389.3kbits/s speed=1.23x elapsed=0:00:02.14    \nframe=  214 fps= 80 q=28.0 size=    1024KiB time=00:00:03.50 bitrate=2396.9kbits/s speed=1.32x elapsed=0:00:02.66    \nframe=  259 fps= 81 q=27.0 size=    1280KiB time=00:00:04.23 bitrate=2477.0kbits/s speed=1.33x elapsed=0:00:03.18    \n[mp4 @ 000001e9429d1180] Starting second pass: moving the moov atom to the beginning of the file\n[out#0/mp4 @ 000001e9429c9a80] video:1748KiB audio:0KiB subtitle:0KiB other streams:0KiB global headers:0KiB muxing overhead: 0.249754%\nframe=  300 fps= 86 q=-1.0 Lsize=    1753KiB time=00:00:04.96 bitrate=2890.7kbits/s speed=1.42x elapsed=0:00:03.50    \n[libx264 @ 000001e9431a0b40] frame I:2     Avg QP:14.79  size: 27526\n[libx264 @ 000001e9431a0b40] frame P:76    Avg QP:17.30  size:  9769\n[libx264 @ 000001e9431a0b40] frame B:222   Avg QP:17.77  size:  4468\n[libx264 @ 000001e9431a0b40] consecutive B-frames:  1.3%  0.0%  0.0% 98.7%\n[libx264 @ 000001e9431a0b40] mb I  I16..4: 12.0% 88.0%  0.0%\n[libx264 @ 000001e9431a0b40] mb P  I16..4:  1.8% 16.5%  0.0%  P16..4: 28.3%  4.8%  2.0%  0.0%  0.0%    skip:46.6%\n[libx264 @ 000001e9431a0b40] mb B  I16..4:  0.3%  1.6%  0.0%  B16..8: 28.3%  3.0%  0.0%  direct: 4.6%  skip:62.3%  L0:61.6% L1:38.2% BI: 0.2%\n[libx264 @ 000001e9431a0b40] 8x8 transform intra:89.2% inter:99.4%\n[libx264 @ 000001e9431a0b40] direct mvs  spatial:95.5% temporal:4.5%\n[libx264 @ 000001e9431a0b40] coded y,uvDC,uvAC intra: 19.6% 15.9% 0.6% inter: 1.2% 8.6% 0.0%\n[libx264 @ 000001e9431a0b40] i16 v,h,dc,p: 29% 22% 44%  5%\n[libx264 @ 000001e9431a0b40] i8 v,h,dc,ddl,ddr,vr,hd,vl,hu: 13%  9% 76%  0%  0%  0%  0%  0%  0%\n[libx264 @ 000001e9431a0b40] i4 v,h,dc,ddl,ddr,vr,hd,vl,hu:  5% 25% 30%  7%  9%  9%  6%  2%  7%\n[libx264 @ 000001e9431a0b40] i8c dc,h,v,p: 74% 16% 10%  1%\n[libx264 @ 000001e9431a0b40] Weighted P-Frames: Y:0.0% UV:0.0%\n[libx264 @ 000001e9431a0b40] ref P L0: 45.5%  1.3% 30.9% 12.8%  9.4%\n[libx264 @ 000001e9431a0b40] ref B L0: 57.3% 30.3%  9.7%  2.7%\n[libx264 @ 000001e9431a0b40] ref B L1: 85.5% 14.5%\n[libx264 @ 000001e9431a0b40] kb/s:2863.04\n",
  "seconds": 3.677077531814575,
  "probe_out": {}
}